<svg xmlns="http://www.w3.org/2000/svg" id="prefix__multiple-actions-information" width="24" height="24" viewBox="0 0 24 24">
    <defs>
        <style>
            .prefix__cls-1{fill:none;stroke:#5067ed;stroke-linecap:round;stroke-linejoin:round}
        </style>
    </defs>
    <g id="prefix___10_23" data-name="10*23">
        <path id="prefix__Caminho_293" d="M7.5 23.5l.5-6h2.5V14a5 5 0 1 0-10 0v3.5H3l.5 6z" class="prefix__cls-1" data-name="Caminho 293"/>
        <circle id="prefix__Elipse_31" cx="3.5" cy="3.5" r="3.5" class="prefix__cls-1" data-name="Elipse 31" transform="translate(2 .5)"/>
    </g>
    <g id="prefix___10_23_-_cut" data-name="10*23 - cut">
        <g id="prefix___Group_" data-name="&lt;Group&gt;">
            <path id="prefix__Caminho_294" d="M17.439 10.37a5.006 5.006 0 0 0-5.561-.9" class="prefix__cls-1" data-name="Caminho 294"/>
            <circle id="prefix__Elipse_32" cx="3" cy="3" r="3" class="prefix__cls-1" data-name="Elipse 32" transform="translate(11 1.5)"/>
        </g>
    </g>
    <circle id="prefix__Elipse_33" cx="5" cy="5" r="5" class="prefix__cls-1" data-name="Elipse 33" transform="translate(13.5 13.5)"/>
    <path id="prefix__Caminho_295" d="M18.5 20.5V19a.5.5 0 0 0-.5-.5h-.5" class="prefix__cls-1" data-name="Caminho 295"/>
    <path id="prefix__Linha_57" d="M0 0L2 0" class="prefix__cls-1" data-name="Linha 57" transform="translate(17.5 20.5)"/>
    <path id="prefix__Caminho_296" d="M18 16.25a.25.25 0 1 1-.25.25.25.25 0 0 1 .25-.25" class="prefix__cls-1" data-name="Caminho 296"/>
</svg>
